<svg width="217" height="195" viewBox="0 0 217 195" fill="none" xmlns="http://www.w3.org/2000/svg">
<rect x="5" y="32" width="206" height="132.429" fill="url(#paint0_linear_35_31)"/>
<g opacity="0.7">
<rect x="87.3525" y="107.9" width="51.3513" height="16.1102" fill="#17405E"/>
<path d="M50.8226 70.893C50.0916 70.893 49.4639 70.7325 48.9395 70.4115C48.4183 70.0905 48.0162 69.6471 47.7333 69.0814C47.4536 68.5125 47.3138 67.8577 47.3138 67.1172C47.3138 66.3735 47.4568 65.7171 47.7429 65.1482C48.0289 64.5761 48.4326 64.1312 48.9538 63.8133C49.4782 63.4923 50.098 63.3318 50.8131 63.3318C51.4075 63.3318 51.9335 63.4415 52.3911 63.6608C52.852 63.8769 53.2191 64.1836 53.4924 64.5809C53.7658 64.975 53.9215 65.4359 53.9596 65.9635H52.3101C52.2434 65.6107 52.0844 65.3167 51.8333 65.0815C51.5854 64.8431 51.2533 64.7239 50.837 64.7239C50.4842 64.7239 50.1743 64.8193 49.9073 65.01C49.6403 65.1975 49.4321 65.4677 49.2828 65.8204C49.1366 66.1732 49.0635 66.596 49.0635 67.0886C49.0635 67.5876 49.1366 68.0167 49.2828 68.3758C49.429 68.7318 49.634 69.0067 49.8978 69.2006C50.1647 69.3913 50.4778 69.4866 50.837 69.4866C51.0912 69.4866 51.3185 69.4389 51.5187 69.3436C51.7221 69.2451 51.8921 69.1036 52.0288 68.9193C52.1655 68.735 52.2592 68.5109 52.3101 68.2471H53.9596C53.9183 68.7651 53.7658 69.2244 53.502 69.6249C53.2382 70.0222 52.879 70.3336 52.4245 70.5593C51.97 70.7818 51.4361 70.893 50.8226 70.893ZM58.571 70.893C57.8558 70.893 57.2361 70.7357 56.7117 70.421C56.1872 70.1064 55.7804 69.6662 55.4912 69.1005C55.2051 68.5347 55.0621 67.8736 55.0621 67.1172C55.0621 66.3608 55.2051 65.6981 55.4912 65.1292C55.7804 64.5602 56.1872 64.1185 56.7117 63.8038C57.2361 63.4892 57.8558 63.3318 58.571 63.3318C59.2861 63.3318 59.9059 63.4892 60.4303 63.8038C60.9547 64.1185 61.3599 64.5602 61.646 65.1292C61.9352 65.6981 62.0798 66.3608 62.0798 67.1172C62.0798 67.8736 61.9352 68.5347 61.646 69.1005C61.3599 69.6662 60.9547 70.1064 60.4303 70.421C59.9059 70.7357 59.2861 70.893 58.571 70.893ZM58.5805 69.5105C58.9683 69.5105 59.2924 69.404 59.5531 69.191C59.8137 68.9749 60.0076 68.6857 60.1347 68.3234C60.265 67.961 60.3302 67.5574 60.3302 67.1124C60.3302 66.6643 60.265 66.259 60.1347 65.8967C60.0076 65.5312 59.8137 65.2404 59.5531 65.0243C59.2924 64.8082 58.9683 64.7001 58.5805 64.7001C58.1832 64.7001 57.8527 64.8082 57.5889 65.0243C57.3282 65.2404 57.1328 65.5312 57.0025 65.8967C56.8753 66.259 56.8118 66.6643 56.8118 67.1124C56.8118 67.5574 56.8753 67.961 57.0025 68.3234C57.1328 68.6857 57.3282 68.9749 57.5889 69.191C57.8527 69.404 58.1832 69.5105 58.5805 69.5105ZM65.2704 66.4593V70.75H63.5446V63.4272H65.1942V64.6715H65.28C65.4484 64.2615 65.717 63.9357 66.0857 63.6942C66.4575 63.4526 66.9168 63.3318 67.4635 63.3318C67.9688 63.3318 68.409 63.4399 68.7841 63.656C69.1623 63.8721 69.4547 64.1852 69.6613 64.5952C69.871 65.0052 69.9743 65.5026 69.9712 66.0874V70.75H68.2453V66.3544C68.2453 65.8649 68.1182 65.482 67.8639 65.2054C67.6129 64.9289 67.2648 64.7907 66.8199 64.7907C66.5179 64.7907 66.2494 64.8574 66.0142 64.9909C65.7822 65.1212 65.5994 65.3103 65.4659 65.5582C65.3356 65.8061 65.2704 66.1065 65.2704 66.4593ZM77.5133 65.3628L75.94 65.5344C75.8955 65.3755 75.8177 65.2261 75.7064 65.0863C75.5984 64.9464 75.4522 64.8336 75.2678 64.7478C75.0835 64.6619 74.8578 64.619 74.5908 64.619C74.2317 64.619 73.9297 64.6969 73.685 64.8526C73.4435 65.0084 73.3243 65.2102 73.3275 65.4581C73.3243 65.6711 73.4021 65.8443 73.5611 65.9778C73.7232 66.1113 73.9901 66.2209 74.362 66.3067L75.6111 66.5737C76.3039 66.7231 76.8188 66.9599 77.1557 67.2841C77.4958 67.6082 77.6674 68.0325 77.6706 68.557C77.6674 69.0178 77.5324 69.4246 77.2654 69.7774C77.0016 70.1271 76.6345 70.4004 76.1641 70.5974C75.6937 70.7945 75.1534 70.893 74.5432 70.893C73.6469 70.893 72.9254 70.7055 72.3787 70.3305C71.8321 69.9522 71.5063 69.4262 71.4014 68.7524L73.0843 68.5903C73.1606 68.9209 73.3227 69.1704 73.5706 69.3388C73.8185 69.5073 74.1411 69.5915 74.5384 69.5915C74.9484 69.5915 75.2773 69.5073 75.5253 69.3388C75.7763 69.1704 75.9019 68.9622 75.9019 68.7143C75.9019 68.5045 75.8208 68.3313 75.6587 68.1946C75.4998 68.058 75.2519 67.9531 74.915 67.88L73.6659 67.6178C72.9635 67.4716 72.4439 67.2253 72.107 66.8788C71.7701 66.5292 71.6032 66.0874 71.6064 65.5535C71.6032 65.1021 71.7256 64.7112 71.9735 64.3807C72.2246 64.0469 72.5726 63.7895 73.0176 63.6083C73.4657 63.424 73.9822 63.3318 74.567 63.3318C75.4251 63.3318 76.1005 63.5146 76.5932 63.8801C77.089 64.2456 77.3957 64.7398 77.5133 65.3628ZM82.2879 70.893C81.5728 70.893 80.953 70.7357 80.4286 70.421C79.9042 70.1064 79.4973 69.6662 79.2081 69.1005C78.9221 68.5347 78.7791 67.8736 78.7791 67.1172C78.7791 66.3608 78.9221 65.6981 79.2081 65.1292C79.4973 64.5602 79.9042 64.1185 80.4286 63.8038C80.953 63.4892 81.5728 63.3318 82.2879 63.3318C83.003 63.3318 83.6228 63.4892 84.1472 63.8038C84.6716 64.1185 85.0769 64.5602 85.3629 65.1292C85.6521 65.6981 85.7968 66.3608 85.7968 67.1172C85.7968 67.8736 85.6521 68.5347 85.3629 69.1005C85.0769 69.6662 84.6716 70.1064 84.1472 70.421C83.6228 70.7357 83.003 70.893 82.2879 70.893ZM82.2974 69.5105C82.6852 69.5105 83.0094 69.404 83.27 69.191C83.5306 68.9749 83.7245 68.6857 83.8516 68.3234C83.9819 67.961 84.0471 67.5574 84.0471 67.1124C84.0471 66.6643 83.9819 66.259 83.8516 65.8967C83.7245 65.5312 83.5306 65.2404 83.27 65.0243C83.0094 64.8082 82.6852 64.7001 82.2974 64.7001C81.9001 64.7001 81.5696 64.8082 81.3058 65.0243C81.0452 65.2404 80.8497 65.5312 80.7194 65.8967C80.5923 66.259 80.5287 66.6643 80.5287 67.1124C80.5287 67.5574 80.5923 67.961 80.7194 68.3234C80.8497 68.6857 81.0452 68.9749 81.3058 69.191C81.5696 69.404 81.9001 69.5105 82.2974 69.5105ZM88.9874 60.9862V70.75H87.2616V60.9862H88.9874ZM94.0039 70.893C93.2698 70.893 92.6357 70.7405 92.1017 70.4353C91.5709 70.1271 91.1625 69.6916 90.8765 69.1291C90.5904 68.5633 90.4474 67.8975 90.4474 67.1315C90.4474 66.3782 90.5904 65.7171 90.8765 65.1482C91.1657 64.5761 91.5694 64.1312 92.0874 63.8133C92.6055 63.4923 93.2141 63.3318 93.9134 63.3318C94.3647 63.3318 94.7906 63.4049 95.191 63.5511C95.5947 63.6942 95.9507 63.9166 96.259 64.2186C96.5704 64.5205 96.8152 64.9051 96.9931 65.3723C97.1711 65.8363 97.2601 66.3894 97.2601 67.0314V67.5606H91.2579V66.3973H95.6058C95.6026 66.0668 95.5311 65.7728 95.3913 65.5153C95.2514 65.2547 95.056 65.0497 94.8049 64.9003C94.557 64.7509 94.2677 64.6763 93.9372 64.6763C93.5844 64.6763 93.2745 64.7621 93.0075 64.9337C92.7406 65.1021 92.5324 65.3246 92.383 65.6011C92.2368 65.8745 92.1621 66.1748 92.1589 66.5022V67.5177C92.1589 67.9436 92.2368 68.3091 92.3925 68.6142C92.5483 68.9161 92.766 69.1481 93.0457 69.3102C93.3254 69.4691 93.6527 69.5486 94.0278 69.5486C94.2789 69.5486 94.5061 69.5136 94.7095 69.4437C94.9129 69.3706 95.0893 69.2641 95.2387 69.1243C95.3881 68.9844 95.5009 68.8112 95.5772 68.6046L97.1886 68.7858C97.0869 69.2117 96.893 69.5836 96.607 69.9014C96.3241 70.216 95.9618 70.4608 95.52 70.6356C95.0782 70.8072 94.5729 70.893 94.0039 70.893Z" fill="#CBA92F"/>
<path d="M99.7833 70.8549C99.4941 70.8549 99.2462 70.7532 99.0396 70.5498C98.833 70.3464 98.7313 70.0984 98.7345 69.806C98.7313 69.52 98.833 69.2753 99.0396 69.0719C99.2462 68.8684 99.4941 68.7667 99.7833 68.7667C100.063 68.7667 100.306 68.8684 100.513 69.0719C100.722 69.2753 100.829 69.52 100.832 69.806C100.829 69.9999 100.778 70.1763 100.68 70.3352C100.584 70.4941 100.457 70.6213 100.298 70.7166C100.142 70.8088 99.9708 70.8549 99.7833 70.8549ZM104.34 60.9862V70.75H102.614V60.9862H104.34ZM109.309 70.893C108.594 70.893 107.974 70.7357 107.449 70.421C106.925 70.1064 106.518 69.6662 106.229 69.1005C105.943 68.5347 105.8 67.8736 105.8 67.1172C105.8 66.3608 105.943 65.6981 106.229 65.1292C106.518 64.5602 106.925 64.1185 107.449 63.8038C107.974 63.4892 108.594 63.3318 109.309 63.3318C110.024 63.3318 110.644 63.4892 111.168 63.8038C111.692 64.1185 112.098 64.5602 112.384 65.1292C112.673 65.6981 112.818 66.3608 112.818 67.1172C112.818 67.8736 112.673 68.5347 112.384 69.1005C112.098 69.6662 111.692 70.1064 111.168 70.421C110.644 70.7357 110.024 70.893 109.309 70.893ZM109.318 69.5105C109.706 69.5105 110.03 69.404 110.291 69.191C110.551 68.9749 110.745 68.6857 110.872 68.3234C111.003 67.961 111.068 67.5574 111.068 67.1124C111.068 66.6643 111.003 66.259 110.872 65.8967C110.745 65.5312 110.551 65.2404 110.291 65.0243C110.03 64.8082 109.706 64.7001 109.318 64.7001C108.921 64.7001 108.59 64.8082 108.327 65.0243C108.066 65.2404 107.871 65.5312 107.74 65.8967C107.613 66.259 107.549 66.6643 107.549 67.1124C107.549 67.5574 107.613 67.961 107.74 68.3234C107.871 68.6857 108.066 68.9749 108.327 69.191C108.59 69.404 108.921 69.5105 109.318 69.5105ZM117.467 73.6486C116.847 73.6486 116.315 73.5644 115.87 73.3959C115.425 73.2307 115.067 73.0082 114.797 72.7285C114.527 72.4488 114.34 72.1389 114.235 71.7988L115.789 71.4222C115.859 71.5652 115.96 71.7067 116.094 71.8465C116.227 71.9895 116.407 72.1071 116.633 72.1993C116.862 72.2947 117.149 72.3423 117.496 72.3423C117.985 72.3423 118.39 72.2231 118.711 71.9848C119.032 71.7496 119.193 71.3618 119.193 70.8215V69.4342H119.107C119.018 69.6122 118.888 69.7949 118.716 69.9824C118.548 70.17 118.324 70.3273 118.044 70.4544C117.767 70.5815 117.419 70.6451 117 70.6451C116.437 70.6451 115.927 70.5132 115.469 70.2494C115.015 69.9824 114.653 69.5851 114.382 69.0576C114.115 68.5268 113.982 67.8625 113.982 67.0648C113.982 66.2606 114.115 65.5821 114.382 65.029C114.653 64.4728 115.017 64.0517 115.474 63.7657C115.932 63.4764 116.442 63.3318 117.005 63.3318C117.434 63.3318 117.786 63.4049 118.063 63.5511C118.343 63.6942 118.565 63.8674 118.73 64.0708C118.896 64.271 119.021 64.4601 119.107 64.6381H119.202V63.4272H120.904V70.8692C120.904 71.4953 120.755 72.0134 120.456 72.4234C120.157 72.8334 119.749 73.1401 119.231 73.3435C118.713 73.5469 118.125 73.6486 117.467 73.6486ZM117.481 69.2912C117.847 69.2912 118.158 69.2022 118.416 69.0242C118.673 68.8462 118.869 68.5903 119.002 68.2566C119.136 67.9229 119.202 67.5224 119.202 67.0552C119.202 66.5944 119.136 66.1907 119.002 65.8443C118.872 65.4978 118.678 65.2293 118.421 65.0386C118.166 64.8447 117.853 64.7478 117.481 64.7478C117.097 64.7478 116.776 64.8479 116.518 65.0481C116.261 65.2483 116.067 65.5233 115.937 65.8729C115.806 66.2193 115.741 66.6134 115.741 67.0552C115.741 67.5034 115.806 67.8959 115.937 68.2328C116.07 68.5665 116.266 68.8271 116.523 69.0146C116.784 69.199 117.103 69.2912 117.481 69.2912ZM123.102 66.7692C123.102 65.5773 123.259 64.4824 123.574 63.4844C123.892 62.4832 124.364 61.5583 124.99 60.7097H126.616C126.374 61.0244 126.149 61.4105 125.939 61.8682C125.729 62.3227 125.546 62.8217 125.391 63.3652C125.238 63.9055 125.117 64.4665 125.028 65.0481C124.942 65.6297 124.899 66.2034 124.899 66.7692C124.899 67.5224 124.974 68.2852 125.124 69.0576C125.276 69.8299 125.481 70.545 125.739 71.2029C125.999 71.864 126.292 72.4043 126.616 72.8238H124.99C124.364 71.9752 123.892 71.0519 123.574 70.054C123.259 69.0528 123.102 67.9579 123.102 66.7692ZM127.78 64.0374V63.0648C127.78 62.7852 127.833 62.4943 127.938 62.1924C128.046 61.8873 128.192 61.5996 128.376 61.3295C128.564 61.0562 128.773 60.8257 129.005 60.6382L129.806 61.1579C129.619 61.4407 129.462 61.7363 129.334 62.0446C129.21 62.3497 129.15 62.6866 129.153 63.0553V64.0374H127.78ZM130.197 64.0374V63.0648C130.197 62.7852 130.25 62.4943 130.355 62.1924C130.463 61.8873 130.609 61.5996 130.793 61.3295C130.981 61.0562 131.191 60.8257 131.423 60.6382L132.224 61.1579C132.036 61.4407 131.879 61.7363 131.752 62.0446C131.628 62.3497 131.567 62.6866 131.57 63.0553V64.0374H130.197ZM133.437 70.75V63.4272H135.11V64.6476H135.186C135.32 64.2249 135.549 63.8992 135.873 63.6703C136.2 63.4383 136.574 63.3223 136.993 63.3223C137.089 63.3223 137.195 63.3271 137.313 63.3366C137.434 63.343 137.534 63.3541 137.613 63.37V64.9575C137.54 64.9321 137.424 64.9099 137.265 64.8908C137.109 64.8685 136.958 64.8574 136.812 64.8574C136.498 64.8574 136.215 64.9257 135.964 65.0624C135.716 65.1959 135.52 65.3818 135.377 65.6202C135.234 65.8586 135.163 66.1335 135.163 66.445V70.75H133.437ZM141.7 70.893C140.966 70.893 140.332 70.7405 139.798 70.4353C139.267 70.1271 138.859 69.6916 138.573 69.1291C138.287 68.5633 138.143 67.8975 138.143 67.1315C138.143 66.3782 138.287 65.7171 138.573 65.1482C138.862 64.5761 139.265 64.1312 139.784 63.8133C140.302 63.4923 140.91 63.3318 141.609 63.3318C142.061 63.3318 142.487 63.4049 142.887 63.5511C143.291 63.6942 143.647 63.9166 143.955 64.2186C144.267 64.5205 144.511 64.9051 144.689 65.3723C144.867 65.8363 144.956 66.3894 144.956 67.0314V67.5606H138.954V66.3973H143.302C143.299 66.0668 143.227 65.7728 143.087 65.5153C142.948 65.2547 142.752 65.0497 142.501 64.9003C142.253 64.7509 141.964 64.6763 141.633 64.6763C141.28 64.6763 140.971 64.7621 140.704 64.9337C140.437 65.1021 140.228 65.3246 140.079 65.6011C139.933 65.8745 139.858 66.1748 139.855 66.5022V67.5177C139.855 67.9436 139.933 68.3091 140.089 68.6142C140.244 68.9161 140.462 69.1481 140.742 69.3102C141.021 69.4691 141.349 69.5486 141.724 69.5486C141.975 69.5486 142.202 69.5136 142.406 69.4437C142.609 69.3706 142.785 69.2641 142.935 69.1243C143.084 68.9844 143.197 68.8112 143.273 68.6046L144.885 68.7858C144.783 69.2117 144.589 69.5836 144.303 69.9014C144.02 70.216 143.658 70.4608 143.216 70.6356C142.774 70.8072 142.269 70.893 141.7 70.893ZM152.204 65.3628L150.631 65.5344C150.586 65.3755 150.508 65.2261 150.397 65.0863C150.289 64.9464 150.143 64.8336 149.958 64.7478C149.774 64.6619 149.548 64.619 149.281 64.619C148.922 64.619 148.62 64.6969 148.376 64.8526C148.134 65.0084 148.015 65.2102 148.018 65.4581C148.015 65.6711 148.093 65.8443 148.252 65.9778C148.414 66.1113 148.681 66.2209 149.053 66.3067L150.302 66.5737C150.995 66.7231 151.509 66.9599 151.846 67.2841C152.186 67.6082 152.358 68.0325 152.361 68.557C152.358 69.0178 152.223 69.4246 151.956 69.7774C151.692 70.1271 151.325 70.4004 150.855 70.5974C150.384 70.7945 149.844 70.893 149.234 70.893C148.338 70.893 147.616 70.7055 147.069 70.3305C146.523 69.9522 146.197 69.4262 146.092 68.7524L147.775 68.5903C147.851 68.9209 148.013 69.1704 148.261 69.3388C148.509 69.5073 148.832 69.5915 149.229 69.5915C149.639 69.5915 149.968 69.5073 150.216 69.3388C150.467 69.1704 150.593 68.9622 150.593 68.7143C150.593 68.5045 150.511 68.3313 150.349 68.1946C150.19 68.058 149.943 67.9531 149.606 67.88L148.357 67.6178C147.654 67.4716 147.135 67.2253 146.798 66.8788C146.461 66.5292 146.294 66.0874 146.297 65.5535C146.294 65.1021 146.416 64.7112 146.664 64.3807C146.915 64.0469 147.263 63.7895 147.708 63.6083C148.156 63.424 148.673 63.3318 149.258 63.3318C150.116 63.3318 150.791 63.5146 151.284 63.8801C151.78 64.2456 152.086 64.7398 152.204 65.3628ZM158.452 67.6702V63.4272H160.178V70.75H158.504V69.4485H158.428C158.263 69.8585 157.991 70.1938 157.613 70.4544C157.238 70.715 156.775 70.8453 156.225 70.8453C155.745 70.8453 155.321 70.7389 154.952 70.5259C154.587 70.3098 154.301 69.9967 154.094 69.5867C153.888 69.1736 153.784 68.6746 153.784 68.0898V63.4272H155.51V67.8228C155.51 68.2868 155.637 68.6555 155.892 68.9288C156.146 69.2022 156.48 69.3388 156.893 69.3388C157.147 69.3388 157.393 69.2769 157.632 69.1529C157.87 69.0289 158.066 68.8446 158.218 68.5999C158.374 68.352 158.452 68.0421 158.452 67.6702ZM163.678 60.9862V70.75H161.952V60.9862H163.678ZM169.109 63.4272V64.7621H164.9V63.4272H169.109ZM165.939 61.6728H167.665V68.5474C167.665 68.7794 167.7 68.9574 167.77 69.0814C167.843 69.2022 167.938 69.2848 168.056 69.3293C168.173 69.3738 168.304 69.396 168.447 69.396C168.555 69.396 168.653 69.3881 168.742 69.3722C168.834 69.3563 168.904 69.342 168.952 69.3293L169.243 70.6785C169.151 70.7103 169.019 70.7452 168.847 70.7834C168.679 70.8215 168.472 70.8438 168.227 70.8501C167.795 70.8628 167.406 70.7977 167.059 70.6547C166.713 70.5084 166.438 70.2828 166.235 69.9777C166.034 69.6726 165.936 69.2912 165.939 68.8335V61.6728ZM174.946 70.8549C174.657 70.8549 174.409 70.7532 174.202 70.5498C173.996 70.3464 173.894 70.0984 173.897 69.806C173.894 69.52 173.996 69.2753 174.202 69.0719C174.409 68.8684 174.657 68.7667 174.946 68.7667C175.226 68.7667 175.469 68.8684 175.675 69.0719C175.885 69.2753 175.992 69.52 175.995 69.806C175.992 69.9999 175.941 70.1763 175.842 70.3352C175.747 70.4941 175.62 70.6213 175.461 70.7166C175.305 70.8088 175.133 70.8549 174.946 70.8549ZM174.946 65.6297C174.657 65.6297 174.409 65.528 174.202 65.3246C173.996 65.118 173.894 64.8701 173.897 64.5809C173.894 64.2949 173.996 64.0501 174.202 63.8467C174.409 63.6401 174.657 63.5368 174.946 63.5368C175.226 63.5368 175.469 63.6401 175.675 63.8467C175.885 64.0501 175.992 64.2949 175.995 64.5809C175.992 64.7716 175.941 64.9464 175.842 65.1053C175.747 65.2642 175.62 65.3914 175.461 65.4867C175.305 65.5821 175.133 65.6297 174.946 65.6297Z" fill="white"/>
<path d="M29.6037 72.4196C28.9172 72.4196 28.3069 72.302 27.773 72.0668C27.2422 71.8316 26.8227 71.5043 26.5144 71.0847C26.2061 70.6652 26.0424 70.1805 26.0233 69.6307H27.8159C27.8318 69.8945 27.9192 70.1249 28.0781 70.3219C28.237 70.5158 28.4484 70.6668 28.7122 70.7748C28.976 70.8829 29.2716 70.9369 29.5989 70.9369C29.9485 70.9369 30.2584 70.8766 30.5286 70.7558C30.7987 70.6318 31.0101 70.4602 31.1627 70.2409C31.3152 70.0216 31.3899 69.7689 31.3867 69.4829C31.3899 69.1873 31.3136 68.9267 31.1579 68.701C31.0022 68.4753 30.7765 68.2989 30.4809 68.1718C30.1885 68.0447 29.8357 67.9811 29.4225 67.9811H28.5596V66.6176H29.4225C29.7626 66.6176 30.0598 66.5588 30.314 66.4412C30.5715 66.3236 30.7733 66.1584 30.9195 65.9454C31.0657 65.7293 31.1372 65.4798 31.1341 65.1969C31.1372 64.9204 31.0753 64.6804 30.9481 64.477C30.8242 64.2704 30.6478 64.1099 30.4189 63.9955C30.1933 63.8811 29.9279 63.8239 29.6228 63.8239C29.324 63.8239 29.0475 63.8779 28.7932 63.986C28.539 64.094 28.334 64.2482 28.1782 64.4484C28.0225 64.6455 27.9399 64.8807 27.9303 65.154H26.2283C26.241 64.6073 26.3984 64.1274 26.7003 63.7142C27.0054 63.2979 27.4123 62.9737 27.9208 62.7417C28.4293 62.5065 28.9998 62.3889 29.6323 62.3889C30.2839 62.3889 30.8496 62.5112 31.3295 62.756C31.8126 62.9975 32.1861 63.3233 32.4499 63.7333C32.7137 64.1433 32.8456 64.5962 32.8456 65.092C32.8488 65.6419 32.6867 66.1027 32.3593 66.4746C32.0351 66.8465 31.6092 67.0896 31.0816 67.204V67.2803C31.7681 67.3756 32.2941 67.6299 32.6596 68.0431C33.0283 68.4531 33.2111 68.9632 33.2079 69.5734C33.2079 70.1201 33.0522 70.6096 32.7407 71.0418C32.4324 71.4709 32.0065 71.8078 31.463 72.0525C30.9227 72.2973 30.3029 72.4196 29.6037 72.4196Z" fill="#9E9E9E"/>
<path d="M25.9232 85.8388V84.4324L30.0661 77.8866H31.2389V79.889H30.5238L27.7349 84.3084V84.3847H33.5178V85.8388H25.9232ZM30.581 87.6504V85.4097L30.6001 84.7804V77.8866H32.2687V87.6504H30.581Z" fill="#9E9E9E"/>
<path d="M29.494 104.685C28.8584 104.685 28.2895 104.566 27.7873 104.327C27.2851 104.086 26.8862 103.755 26.5907 103.336C26.2983 102.916 26.1425 102.436 26.1234 101.896H27.8397C27.8715 102.296 28.0447 102.624 28.3594 102.878C28.674 103.129 29.0523 103.255 29.494 103.255C29.8405 103.255 30.1488 103.175 30.4189 103.016C30.6891 102.857 30.902 102.636 31.0578 102.353C31.2135 102.071 31.2898 101.748 31.2866 101.386C31.2898 101.017 31.2119 100.69 31.053 100.404C30.8941 100.118 30.6764 99.8935 30.3999 99.7314C30.1234 99.5661 29.8055 99.4835 29.4464 99.4835C29.154 99.4803 28.8663 99.5343 28.5835 99.6456C28.3006 99.7568 28.0765 99.903 27.9112 100.084L26.3141 99.8219L26.8243 94.7875H32.488V96.2654H28.2879L28.0066 98.8542H28.0638C28.245 98.6412 28.5008 98.4648 28.8314 98.325C29.1619 98.1819 29.5242 98.1104 29.9183 98.1104C30.5095 98.1104 31.0371 98.2503 31.5011 98.53C31.9652 98.8065 32.3307 99.1879 32.5977 99.6742C32.8646 100.16 32.9981 100.717 32.9981 101.343C32.9981 101.988 32.8488 102.563 32.55 103.069C32.2544 103.571 31.8428 103.966 31.3152 104.256C30.7908 104.542 30.1837 104.685 29.494 104.685Z" fill="#9E9E9E"/>
<path d="M29.6752 120.817C29.208 120.814 28.7519 120.733 28.3069 120.574C27.862 120.412 27.4615 120.15 27.1055 119.787C26.7496 119.422 26.4667 118.937 26.2569 118.333C26.0472 117.726 25.9439 116.975 25.9471 116.078C25.9471 115.242 26.036 114.497 26.214 113.842C26.392 113.188 26.6479 112.635 26.9816 112.183C27.3153 111.729 27.7174 111.382 28.1878 111.144C28.6613 110.906 29.1905 110.786 29.7753 110.786C30.3887 110.786 30.9322 110.907 31.4058 111.149C31.8825 111.39 32.2671 111.721 32.5595 112.14C32.8519 112.557 33.0331 113.027 33.103 113.551H31.3629C31.2739 113.176 31.0911 112.878 30.8146 112.655C30.5413 112.43 30.1949 112.317 29.7753 112.317C29.0983 112.317 28.5771 112.611 28.2116 113.199C27.8493 113.787 27.6665 114.594 27.6633 115.621H27.7301C27.8858 115.341 28.0876 115.101 28.3356 114.901C28.5835 114.7 28.8632 114.546 29.1746 114.438C29.4893 114.327 29.8214 114.271 30.171 114.271C30.7431 114.271 31.2564 114.408 31.7109 114.681C32.1686 114.955 32.5309 115.331 32.7979 115.811C33.0649 116.288 33.1968 116.835 33.1936 117.451C33.1968 118.093 33.0506 118.67 32.755 119.182C32.4594 119.69 32.0478 120.091 31.5202 120.383C30.9926 120.676 30.3776 120.82 29.6752 120.817ZM29.6657 119.387C30.0121 119.387 30.322 119.303 30.5953 119.134C30.8687 118.966 31.0848 118.738 31.2437 118.452C31.4026 118.166 31.4805 117.845 31.4773 117.489C31.4805 117.14 31.4042 116.824 31.2485 116.541C31.0959 116.258 30.8846 116.034 30.6144 115.868C30.3442 115.703 30.0359 115.621 29.6895 115.621C29.4321 115.621 29.1921 115.67 28.9696 115.768C28.7471 115.867 28.5533 116.004 28.388 116.178C28.2227 116.35 28.0924 116.55 27.9971 116.779C27.9049 117.005 27.8572 117.246 27.854 117.504C27.8572 117.844 27.9367 118.157 28.0924 118.443C28.2481 118.729 28.4627 118.958 28.736 119.129C29.0094 119.301 29.3192 119.387 29.6657 119.387Z" fill="#9E9E9E"/>
<path d="M51.1586 103.926C50.4276 103.926 49.7999 103.765 49.2754 103.444C48.7542 103.123 48.3521 102.68 48.0693 102.114C47.7896 101.545 47.6497 100.89 47.6497 100.15C47.6497 99.4062 47.7928 98.7499 48.0788 98.1809C48.3649 97.6089 48.7685 97.1639 49.2897 96.8461C49.8142 96.525 50.4339 96.3645 51.1491 96.3645C51.7434 96.3645 52.2694 96.4742 52.7271 96.6935C53.1879 96.9096 53.555 97.2163 53.8284 97.6136C54.1017 98.0077 54.2574 98.4686 54.2956 98.9962H52.646C52.5793 98.6434 52.4204 98.3494 52.1693 98.1142C51.9214 97.8758 51.5892 97.7566 51.1729 97.7566C50.8201 97.7566 50.5102 97.852 50.2432 98.0427C49.9763 98.2302 49.7681 98.5004 49.6187 98.8532C49.4725 99.206 49.3994 99.6287 49.3994 100.121C49.3994 100.62 49.4725 101.049 49.6187 101.409C49.7649 101.764 49.9699 102.039 50.2337 102.233C50.5007 102.424 50.8137 102.519 51.1729 102.519C51.4272 102.519 51.6544 102.472 51.8546 102.376C52.058 102.278 52.2281 102.136 52.3648 101.952C52.5014 101.768 52.5952 101.544 52.646 101.28H54.2956C54.2543 101.798 54.1017 102.257 53.8379 102.658C53.5741 103.055 53.215 103.366 52.7605 103.592C52.306 103.814 51.772 103.926 51.1586 103.926ZM58.9069 103.926C58.1918 103.926 57.572 103.768 57.0476 103.454C56.5232 103.139 56.1163 102.699 55.8271 102.133C55.5411 101.567 55.3981 100.906 55.3981 100.15C55.3981 99.3935 55.5411 98.7308 55.8271 98.1619C56.1163 97.593 56.5232 97.1512 57.0476 96.8365C57.572 96.5219 58.1918 96.3645 58.9069 96.3645C59.622 96.3645 60.2418 96.5219 60.7662 96.8365C61.2906 97.1512 61.6959 97.593 61.9819 98.1619C62.2711 98.7308 62.4158 99.3935 62.4158 100.15C62.4158 100.906 62.2711 101.567 61.9819 102.133C61.6959 102.699 61.2906 103.139 60.7662 103.454C60.2418 103.768 59.622 103.926 58.9069 103.926ZM58.9164 102.543C59.3042 102.543 59.6284 102.437 59.889 102.224C60.1496 102.008 60.3435 101.718 60.4706 101.356C60.6009 100.994 60.6661 100.59 60.6661 100.145C60.6661 99.697 60.6009 99.2918 60.4706 98.9294C60.3435 98.5639 60.1496 98.2731 59.889 98.057C59.6284 97.8409 59.3042 97.7328 58.9164 97.7328C58.5192 97.7328 58.1886 97.8409 57.9248 98.057C57.6642 98.2731 57.4687 98.5639 57.3384 98.9294C57.2113 99.2918 57.1477 99.697 57.1477 100.145C57.1477 100.59 57.2113 100.994 57.3384 101.356C57.4687 101.718 57.6642 102.008 57.9248 102.224C58.1886 102.437 58.5192 102.543 58.9164 102.543ZM65.6064 99.492V103.783H63.8806V96.4599H65.5301V97.7042H65.6159C65.7844 97.2942 66.0529 96.9684 66.4216 96.7269C66.7935 96.4853 67.2527 96.3645 67.7994 96.3645C68.3048 96.3645 68.745 96.4726 69.12 96.6887C69.4982 96.9049 69.7906 97.2179 69.9972 97.6279C70.207 98.0379 70.3103 98.5353 70.3071 99.1201V103.783H68.5813V99.3871C68.5813 98.8977 68.4541 98.5147 68.1999 98.2382C67.9488 97.9616 67.6008 97.8234 67.1558 97.8234C66.8539 97.8234 66.5853 97.8901 66.3501 98.0236C66.1181 98.1539 65.9353 98.343 65.8018 98.5909C65.6715 98.8389 65.6064 99.1392 65.6064 99.492ZM77.8492 98.3955L76.276 98.5671C76.2315 98.4082 76.1536 98.2588 76.0424 98.119C75.9343 97.9791 75.7881 97.8663 75.6038 97.7805C75.4194 97.6947 75.1937 97.6518 74.9268 97.6518C74.5676 97.6518 74.2657 97.7296 74.021 97.8854C73.7794 98.0411 73.6602 98.2429 73.6634 98.4908C73.6602 98.7038 73.7381 98.877 73.897 99.0105C74.0591 99.144 74.3261 99.2536 74.6979 99.3394L75.947 99.6064C76.6399 99.7558 77.1548 99.9926 77.4917 100.317C77.8317 100.641 78.0034 101.065 78.0066 101.59C78.0034 102.051 77.8683 102.457 77.6013 102.81C77.3375 103.16 76.9704 103.433 76.5 103.63C76.0296 103.827 75.4893 103.926 74.8791 103.926C73.9828 103.926 73.2613 103.738 72.7147 103.363C72.168 102.985 71.8422 102.459 71.7373 101.785L73.4203 101.623C73.4965 101.954 73.6586 102.203 73.9065 102.372C74.1544 102.54 74.477 102.624 74.8743 102.624C75.2843 102.624 75.6133 102.54 75.8612 102.372C76.1123 102.203 76.2378 101.995 76.2378 101.747C76.2378 101.537 76.1568 101.364 75.9947 101.227C75.8358 101.091 75.5879 100.986 75.251 100.913L74.0019 100.65C73.2995 100.504 72.7798 100.258 72.4429 99.9115C72.106 99.5619 71.9392 99.1201 71.9423 98.5862C71.9392 98.1349 72.0615 97.7439 72.3094 97.4134C72.5605 97.0797 72.9085 96.8222 73.3535 96.6411C73.8017 96.4567 74.3181 96.3645 74.9029 96.3645C75.7611 96.3645 76.4365 96.5473 76.9291 96.9128C77.4249 97.2783 77.7316 97.7725 77.8492 98.3955ZM83.0863 96.4599V97.7948H78.8766V96.4599H83.0863ZM79.9159 94.7055H81.6417V101.58C81.6417 101.812 81.6767 101.99 81.7466 102.114C81.8197 102.235 81.9151 102.318 82.0327 102.362C82.1503 102.407 82.2806 102.429 82.4236 102.429C82.5317 102.429 82.6302 102.421 82.7192 102.405C82.8114 102.389 82.8813 102.375 82.929 102.362L83.2198 103.711C83.1276 103.743 82.9957 103.778 82.8241 103.816C82.6556 103.854 82.449 103.876 82.2043 103.883C81.7721 103.896 81.3827 103.83 81.0363 103.687C80.6898 103.541 80.4149 103.316 80.2115 103.01C80.0113 102.705 79.9127 102.324 79.9159 101.866V94.7055Z" fill="#7AB3F5"/>
<path d="M94.4007 96.4599L91.7929 103.783H89.8859L87.2781 96.4599H89.1183L90.8012 101.9H90.8775L92.5652 96.4599H94.4007ZM97.4924 103.931C97.0283 103.931 96.6104 103.848 96.2385 103.683C95.8698 103.514 95.5774 103.266 95.3613 102.939C95.1484 102.612 95.0419 102.208 95.0419 101.728C95.0419 101.315 95.1182 100.973 95.2707 100.703C95.4233 100.433 95.6315 100.217 95.8953 100.055C96.1591 99.8925 96.4562 99.7701 96.7868 99.6875C97.1205 99.6016 97.4653 99.5397 97.8213 99.5015C98.2504 99.457 98.5984 99.4173 98.8654 99.3823C99.1324 99.3442 99.3262 99.287 99.447 99.2107C99.571 99.1313 99.633 99.0089 99.633 98.8436V98.815C99.633 98.4559 99.5265 98.1778 99.3135 97.9807C99.1006 97.7837 98.7939 97.6851 98.3934 97.6851C97.9707 97.6851 97.6354 97.7773 97.3875 97.9616C97.1428 98.146 96.9775 98.3637 96.8917 98.6148L95.2803 98.3859C95.4074 97.941 95.6172 97.5691 95.9096 97.2704C96.202 96.9684 96.5595 96.7428 96.9822 96.5934C97.405 96.4408 97.8722 96.3645 98.3839 96.3645C98.7367 96.3645 99.0879 96.4059 99.4375 96.4885C99.7871 96.5711 100.107 96.7078 100.396 96.8985C100.685 97.086 100.917 97.3419 101.092 97.6661C101.27 97.9902 101.359 98.3955 101.359 98.8818V103.783H99.6997V102.777H99.6425C99.5376 102.98 99.3898 103.171 99.1991 103.349C99.0116 103.524 98.7748 103.665 98.4888 103.773C98.2059 103.878 97.8738 103.931 97.4924 103.931ZM97.9405 102.662C98.2869 102.662 98.5873 102.594 98.8416 102.457C99.0958 102.318 99.2913 102.133 99.428 101.904C99.5678 101.675 99.6377 101.426 99.6377 101.156V100.293C99.5837 100.337 99.4915 100.379 99.3612 100.417C99.2341 100.455 99.0911 100.488 98.9321 100.517C98.7732 100.546 98.6159 100.571 98.4602 100.593C98.3044 100.616 98.1693 100.635 98.0549 100.65C97.7975 100.685 97.5671 100.743 97.3636 100.822C97.1602 100.902 96.9997 101.013 96.8821 101.156C96.7645 101.296 96.7057 101.477 96.7057 101.699C96.7057 102.017 96.8217 102.257 97.0538 102.419C97.2858 102.581 97.5814 102.662 97.9405 102.662ZM104.82 94.019V103.783H103.094V94.019H104.82ZM111.262 100.703V96.4599H112.988V103.783H111.314V102.481H111.238C111.073 102.891 110.801 103.227 110.423 103.487C110.048 103.748 109.585 103.878 109.036 103.878C108.556 103.878 108.131 103.772 107.763 103.559C107.397 103.343 107.111 103.029 106.905 102.619C106.698 102.206 106.595 101.707 106.595 101.122V96.4599H108.32V100.855C108.32 101.32 108.448 101.688 108.702 101.962C108.956 102.235 109.29 102.372 109.703 102.372C109.957 102.372 110.204 102.31 110.442 102.186C110.68 102.062 110.876 101.877 111.028 101.633C111.184 101.385 111.262 101.075 111.262 100.703ZM118.004 103.926C117.27 103.926 116.636 103.773 116.102 103.468C115.571 103.16 115.163 102.724 114.877 102.162C114.591 101.596 114.448 100.93 114.448 100.164C114.448 99.411 114.591 98.7499 114.877 98.1809C115.166 97.6089 115.57 97.1639 116.088 96.8461C116.606 96.525 117.215 96.3645 117.914 96.3645C118.365 96.3645 118.791 96.4376 119.191 96.5838C119.595 96.7269 119.951 96.9494 120.259 97.2513C120.571 97.5532 120.816 97.9378 120.994 98.405C121.172 98.869 121.261 99.4221 121.261 100.064V100.593H115.258V99.43H119.606C119.603 99.0995 119.532 98.8055 119.392 98.548C119.252 98.2874 119.056 98.0824 118.805 97.933C118.557 97.7837 118.268 97.709 117.938 97.709C117.585 97.709 117.275 97.7948 117.008 97.9664C116.741 98.1349 116.533 98.3573 116.383 98.6339C116.237 98.9072 116.163 99.2075 116.159 99.5349V100.55C116.159 100.976 116.237 101.342 116.393 101.647C116.549 101.949 116.766 102.181 117.046 102.343C117.326 102.502 117.653 102.581 118.028 102.581C118.279 102.581 118.507 102.546 118.71 102.476C118.913 102.403 119.09 102.297 119.239 102.157C119.389 102.017 119.501 101.844 119.578 101.637L121.189 101.819C121.087 102.244 120.893 102.616 120.607 102.934C120.325 103.249 119.962 103.493 119.52 103.668C119.079 103.84 118.573 103.926 118.004 103.926ZM126.508 98.1094V96.6411H132.854V98.1094H126.508ZM126.508 101.161V99.6922H132.854V101.161H126.508ZM138.395 103.783V102.505L141.784 99.1821C142.109 98.8547 142.379 98.5639 142.595 98.3097C142.811 98.0554 142.973 97.8091 143.081 97.5707C143.189 97.3323 143.243 97.0781 143.243 96.8079C143.243 96.4996 143.173 96.2358 143.034 96.0165C142.894 95.794 142.701 95.6224 142.457 95.5016C142.212 95.3809 141.934 95.3205 141.622 95.3205C141.301 95.3205 141.02 95.3872 140.779 95.5207C140.537 95.651 140.349 95.8369 140.216 96.0785C140.086 96.32 140.021 96.6077 140.021 96.9414H138.338C138.338 96.3216 138.479 95.7829 138.762 95.3252C139.045 94.8676 139.434 94.5132 139.93 94.2621C140.429 94.011 141.001 93.8855 141.646 93.8855C142.301 93.8855 142.876 94.0078 143.372 94.2526C143.868 94.4973 144.252 94.8326 144.526 95.2585C144.802 95.6844 144.941 96.1707 144.941 96.7173C144.941 97.0828 144.871 97.442 144.731 97.7948C144.591 98.1476 144.345 98.5385 143.992 98.9676C143.642 99.3966 143.151 99.9163 142.519 100.527L140.836 102.238V102.305H145.088V103.783H138.395ZM150.342 103.969C149.557 103.969 148.883 103.77 148.321 103.373C147.761 102.972 147.331 102.395 147.029 101.642C146.73 100.886 146.581 99.9751 146.581 98.9104C146.584 97.8456 146.735 96.9398 147.033 96.1929C147.335 95.4428 147.766 94.8707 148.325 94.4766C148.888 94.0825 149.56 93.8855 150.342 93.8855C151.124 93.8855 151.796 94.0825 152.359 94.4766C152.921 94.8707 153.352 95.4428 153.651 96.1929C153.953 96.943 154.104 97.8488 154.104 98.9104C154.104 99.9783 153.953 100.89 153.651 101.647C153.352 102.4 152.921 102.975 152.359 103.373C151.799 103.77 151.127 103.969 150.342 103.969ZM150.342 102.476C150.952 102.476 151.434 102.176 151.787 101.575C152.143 100.972 152.321 100.083 152.321 98.9104C152.321 98.1349 152.24 97.4833 152.077 96.9557C151.915 96.4281 151.687 96.0308 151.391 95.7638C151.095 95.4937 150.746 95.3586 150.342 95.3586C149.735 95.3586 149.255 95.6605 148.902 96.2644C148.55 96.8651 148.372 97.7471 148.368 98.9104C148.365 99.6891 148.443 100.344 148.602 100.875C148.764 101.405 148.993 101.806 149.288 102.076C149.584 102.343 149.935 102.476 150.342 102.476ZM157.733 102.448L157.671 102.972C157.626 103.373 157.547 103.78 157.432 104.193C157.321 104.609 157.204 104.992 157.08 105.342C156.956 105.691 156.856 105.966 156.779 106.166H155.616C155.661 105.973 155.721 105.709 155.797 105.375C155.877 105.041 155.953 104.666 156.026 104.25C156.099 103.834 156.148 103.411 156.174 102.982L156.207 102.448H157.733ZM156.941 98.6625C156.652 98.6625 156.404 98.5608 156.198 98.3573C155.991 98.1508 155.889 97.9028 155.893 97.6136C155.889 97.3276 155.991 97.0828 156.198 96.8794C156.404 96.6728 156.652 96.5695 156.941 96.5695C157.221 96.5695 157.464 96.6728 157.671 96.8794C157.881 97.0828 157.987 97.3276 157.99 97.6136C157.987 97.8043 157.936 97.9791 157.838 98.138C157.742 98.297 157.615 98.4241 157.456 98.5194C157.301 98.6148 157.129 98.6625 156.941 98.6625ZM89.9669 119.931C89.5029 119.931 89.0849 119.848 88.7131 119.683C88.3444 119.514 88.052 119.266 87.8359 118.939C87.6229 118.612 87.5164 118.208 87.5164 117.728C87.5164 117.315 87.5927 116.973 87.7453 116.703C87.8978 116.433 88.106 116.217 88.3698 116.055C88.6336 115.892 88.9308 115.77 89.2613 115.687C89.5951 115.602 89.9399 115.54 90.2959 115.502C90.725 115.457 91.073 115.417 91.34 115.382C91.6069 115.344 91.8008 115.287 91.9216 115.211C92.0455 115.131 92.1075 115.009 92.1075 114.844V114.815C92.1075 114.456 92.001 114.178 91.7881 113.981C91.5751 113.784 91.2684 113.685 90.868 113.685C90.4453 113.685 90.1099 113.777 89.862 113.962C89.6173 114.146 89.452 114.364 89.3662 114.615L87.7548 114.386C87.882 113.941 88.0917 113.569 88.3841 113.27C88.6765 112.968 89.0341 112.743 89.4568 112.593C89.8795 112.441 90.3467 112.365 90.8584 112.365C91.2112 112.365 91.5624 112.406 91.912 112.488C92.2617 112.571 92.5811 112.708 92.8703 112.898C93.1595 113.086 93.3916 113.342 93.5664 113.666C93.7443 113.99 93.8333 114.395 93.8333 114.882V119.783H92.1743V118.777H92.1171C92.0122 118.98 91.8644 119.171 91.6737 119.349C91.4862 119.524 91.2494 119.665 90.9633 119.773C90.6805 119.878 90.3483 119.931 89.9669 119.931ZM90.4151 118.662C90.7615 118.662 91.0619 118.594 91.3161 118.457C91.5704 118.318 91.7658 118.133 91.9025 117.904C92.0424 117.675 92.1123 117.426 92.1123 117.156V116.293C92.0583 116.337 91.9661 116.379 91.8358 116.417C91.7086 116.455 91.5656 116.488 91.4067 116.517C91.2478 116.546 91.0905 116.571 90.9347 116.593C90.779 116.616 90.6439 116.635 90.5295 116.65C90.272 116.685 90.0416 116.743 89.8382 116.822C89.6348 116.902 89.4743 117.013 89.3567 117.156C89.2391 117.296 89.1803 117.477 89.1803 117.699C89.1803 118.017 89.2963 118.257 89.5283 118.419C89.7603 118.581 90.0559 118.662 90.4151 118.662ZM98.2861 119.911C97.7109 119.911 97.196 119.764 96.7415 119.468C96.287 119.172 95.9278 118.743 95.664 118.181C95.4002 117.618 95.2683 116.935 95.2683 116.131C95.2683 115.317 95.4018 114.631 95.6688 114.071C95.939 113.509 96.3029 113.084 96.7606 112.798C97.2182 112.509 97.7284 112.365 98.2909 112.365C98.72 112.365 99.0728 112.438 99.3493 112.584C99.6258 112.727 99.8451 112.9 100.007 113.103C100.169 113.304 100.295 113.493 100.384 113.671H100.455V110.019H102.186V119.783H100.489V118.629H100.384C100.295 118.807 100.166 118.996 99.9977 119.196C99.8292 119.393 99.6067 119.562 99.3302 119.702C99.0537 119.842 98.7057 119.911 98.2861 119.911ZM98.7677 118.495C99.1332 118.495 99.4446 118.397 99.7021 118.2C99.9595 118 100.155 117.722 100.288 117.366C100.422 117.01 100.489 116.595 100.489 116.121C100.489 115.648 100.422 115.236 100.288 114.887C100.158 114.537 99.9643 114.265 99.7069 114.071C99.4526 113.877 99.1395 113.78 98.7677 113.78C98.3831 113.78 98.0621 113.881 97.8046 114.081C97.5472 114.281 97.3533 114.558 97.223 114.91C97.0927 115.263 97.0275 115.667 97.0275 116.121C97.0275 116.579 97.0927 116.987 97.223 117.347C97.3565 117.703 97.552 117.984 97.8094 118.19C98.07 118.394 98.3894 118.495 98.7677 118.495ZM106.742 119.911C106.167 119.911 105.652 119.764 105.198 119.468C104.743 119.172 104.384 118.743 104.12 118.181C103.857 117.618 103.725 116.935 103.725 116.131C103.725 115.317 103.858 114.631 104.125 114.071C104.395 113.509 104.759 113.084 105.217 112.798C105.675 112.509 106.185 112.365 106.747 112.365C107.176 112.365 107.529 112.438 107.806 112.584C108.082 112.727 108.301 112.9 108.463 113.103C108.626 113.304 108.751 113.493 108.84 113.671H108.912V110.019H110.642V119.783H108.945V118.629H108.84C108.751 118.807 108.622 118.996 108.454 119.196C108.286 119.393 108.063 119.562 107.787 119.702C107.51 119.842 107.162 119.911 106.742 119.911ZM107.224 118.495C107.589 118.495 107.901 118.397 108.158 118.2C108.416 118 108.611 117.722 108.745 117.366C108.878 117.01 108.945 116.595 108.945 116.121C108.945 115.648 108.878 115.236 108.745 114.887C108.614 114.537 108.421 114.265 108.163 114.071C107.909 113.877 107.596 113.78 107.224 113.78C106.839 113.78 106.518 113.881 106.261 114.081C106.003 114.281 105.81 114.558 105.679 114.91C105.549 115.263 105.484 115.667 105.484 116.121C105.484 116.579 105.549 116.987 105.679 117.347C105.813 117.703 106.008 117.984 106.266 118.19C106.526 118.394 106.846 118.495 107.224 118.495ZM112.481 119.783V112.46H114.155V113.68H114.231C114.364 113.258 114.593 112.932 114.917 112.703C115.245 112.471 115.618 112.355 116.038 112.355C116.133 112.355 116.24 112.36 116.357 112.369C116.478 112.376 116.578 112.387 116.658 112.403V113.99C116.584 113.965 116.468 113.943 116.31 113.924C116.154 113.901 116.003 113.89 115.857 113.89C115.542 113.89 115.259 113.958 115.008 114.095C114.76 114.229 114.565 114.415 114.422 114.653C114.279 114.891 114.207 115.166 114.207 115.478V119.783H112.481ZM120.744 119.926C120.01 119.926 119.376 119.773 118.842 119.468C118.311 119.16 117.903 118.724 117.617 118.162C117.331 117.596 117.188 116.93 117.188 116.164C117.188 115.411 117.331 114.75 117.617 114.181C117.906 113.609 118.31 113.164 118.828 112.846C119.346 112.525 119.955 112.365 120.654 112.365C121.105 112.365 121.531 112.438 121.932 112.584C122.335 112.727 122.691 112.949 122.999 113.251C123.311 113.553 123.556 113.938 123.734 114.405C123.912 114.869 124.001 115.422 124.001 116.064V116.593H117.998V115.43H122.346C122.343 115.099 122.272 114.805 122.132 114.548C121.992 114.287 121.796 114.082 121.545 113.933C121.298 113.784 121.008 113.709 120.678 113.709C120.325 113.709 120.015 113.795 119.748 113.966C119.481 114.135 119.273 114.357 119.124 114.634C118.977 114.907 118.903 115.208 118.899 115.535V116.55C118.899 116.976 118.977 117.342 119.133 117.647C119.289 117.949 119.507 118.181 119.786 118.343C120.066 118.502 120.393 118.581 120.768 118.581C121.019 118.581 121.247 118.546 121.45 118.476C121.653 118.403 121.83 118.297 121.979 118.157C122.129 118.017 122.241 117.844 122.318 117.637L123.929 117.819C123.827 118.244 123.634 118.616 123.348 118.934C123.065 119.249 122.702 119.493 122.261 119.668C121.819 119.84 121.313 119.926 120.744 119.926ZM131.248 114.395L129.675 114.567C129.631 114.408 129.553 114.259 129.442 114.119C129.333 113.979 129.187 113.866 129.003 113.78C128.819 113.695 128.593 113.652 128.326 113.652C127.967 113.652 127.665 113.73 127.42 113.885C127.179 114.041 127.059 114.243 127.063 114.491C127.059 114.704 127.137 114.877 127.296 115.01C127.458 115.144 127.725 115.254 128.097 115.339L129.346 115.606C130.039 115.756 130.554 115.993 130.891 116.317C131.231 116.641 131.403 117.065 131.406 117.59C131.403 118.051 131.267 118.457 131 118.81C130.737 119.16 130.37 119.433 129.899 119.63C129.429 119.827 128.888 119.926 128.278 119.926C127.382 119.926 126.66 119.738 126.114 119.363C125.567 118.985 125.241 118.459 125.136 117.785L126.819 117.623C126.896 117.954 127.058 118.203 127.306 118.372C127.554 118.54 127.876 118.624 128.273 118.624C128.683 118.624 129.012 118.54 129.26 118.372C129.511 118.203 129.637 117.995 129.637 117.747C129.637 117.537 129.556 117.364 129.394 117.227C129.235 117.091 128.987 116.986 128.65 116.913L127.401 116.65C126.699 116.504 126.179 116.258 125.842 115.912C125.505 115.562 125.338 115.12 125.341 114.586C125.338 114.135 125.461 113.744 125.709 113.413C125.96 113.08 126.308 112.822 126.753 112.641C127.201 112.457 127.717 112.365 128.302 112.365C129.16 112.365 129.836 112.547 130.328 112.913C130.824 113.278 131.131 113.773 131.248 114.395ZM138.617 114.395L137.043 114.567C136.999 114.408 136.921 114.259 136.81 114.119C136.702 113.979 136.555 113.866 136.371 113.78C136.187 113.695 135.961 113.652 135.694 113.652C135.335 113.652 135.033 113.73 134.788 113.885C134.547 114.041 134.427 114.243 134.431 114.491C134.427 114.704 134.505 114.877 134.664 115.01C134.826 115.144 135.093 115.254 135.465 115.339L136.714 115.606C137.407 115.756 137.922 115.993 138.259 116.317C138.599 116.641 138.771 117.065 138.774 117.59C138.771 118.051 138.636 118.457 138.369 118.81C138.105 119.16 137.738 119.433 137.267 119.63C136.797 119.827 136.257 119.926 135.646 119.926C134.75 119.926 134.029 119.738 133.482 119.363C132.935 118.985 132.609 118.459 132.505 117.785L134.188 117.623C134.264 117.954 134.426 118.203 134.674 118.372C134.922 118.54 135.244 118.624 135.642 118.624C136.052 118.624 136.381 118.54 136.628 118.372C136.88 118.203 137.005 117.995 137.005 117.747C137.005 117.537 136.924 117.364 136.762 117.227C136.603 117.091 136.355 116.986 136.018 116.913L134.769 116.65C134.067 116.504 133.547 116.258 133.21 115.912C132.873 115.562 132.706 115.12 132.71 114.586C132.706 114.135 132.829 113.744 133.077 113.413C133.328 113.08 133.676 112.822 134.121 112.641C134.569 112.457 135.085 112.365 135.67 112.365C136.528 112.365 137.204 112.547 137.696 112.913C138.192 113.278 138.499 113.773 138.617 114.395ZM143.985 115.12V113.647H150.33V115.12H143.985ZM143.985 118.171V116.698H150.33V118.171H143.985ZM160.558 116.703V112.46H162.283V119.783H160.61V118.481H160.534C160.368 118.891 160.097 119.227 159.718 119.487C159.343 119.748 158.881 119.878 158.331 119.878C157.851 119.878 157.427 119.772 157.058 119.559C156.693 119.343 156.407 119.029 156.2 118.619C155.994 118.206 155.89 117.707 155.89 117.122V112.46H157.616V116.855C157.616 117.32 157.743 117.688 157.997 117.962C158.252 118.235 158.585 118.372 158.999 118.372C159.253 118.372 159.499 118.31 159.738 118.186C159.976 118.062 160.171 117.877 160.324 117.633C160.48 117.385 160.558 117.075 160.558 116.703ZM169.846 114.395L168.273 114.567C168.228 114.408 168.15 114.259 168.039 114.119C167.931 113.979 167.785 113.866 167.6 113.78C167.416 113.695 167.19 113.652 166.923 113.652C166.564 113.652 166.262 113.73 166.017 113.885C165.776 114.041 165.657 114.243 165.66 114.491C165.657 114.704 165.735 114.877 165.894 115.01C166.056 115.144 166.323 115.254 166.694 115.339L167.944 115.606C168.636 115.756 169.151 115.993 169.488 116.317C169.828 116.641 170 117.065 170.003 117.59C170 118.051 169.865 118.457 169.598 118.81C169.334 119.16 168.967 119.433 168.497 119.63C168.026 119.827 167.486 119.926 166.876 119.926C165.979 119.926 165.258 119.738 164.711 119.363C164.165 118.985 163.839 118.459 163.734 117.785L165.417 117.623C165.493 117.954 165.655 118.203 165.903 118.372C166.151 118.54 166.474 118.624 166.871 118.624C167.281 118.624 167.61 118.54 167.858 118.372C168.109 118.203 168.234 117.995 168.234 117.747C168.234 117.537 168.153 117.364 167.991 117.227C167.832 117.091 167.584 116.986 167.247 116.913L165.998 116.65C165.296 116.504 164.776 116.258 164.439 115.912C164.103 115.562 163.936 115.12 163.939 114.586C163.936 114.135 164.058 113.744 164.306 113.413C164.557 113.08 164.905 112.822 165.35 112.641C165.798 112.457 166.315 112.365 166.899 112.365C167.758 112.365 168.433 112.547 168.926 112.913C169.421 113.278 169.728 113.773 169.846 114.395ZM174.668 119.926C173.934 119.926 173.3 119.773 172.766 119.468C172.235 119.16 171.827 118.724 171.541 118.162C171.255 117.596 171.112 116.93 171.112 116.164C171.112 115.411 171.255 114.75 171.541 114.181C171.83 113.609 172.233 113.164 172.752 112.846C173.27 112.525 173.878 112.365 174.577 112.365C175.029 112.365 175.455 112.438 175.855 112.584C176.259 112.727 176.615 112.949 176.923 113.251C177.235 113.553 177.479 113.938 177.657 114.405C177.835 114.869 177.924 115.422 177.924 116.064V116.593H171.922V115.43H176.27C176.267 115.099 176.195 114.805 176.055 114.548C175.916 114.287 175.72 114.082 175.469 113.933C175.221 113.784 174.932 113.709 174.601 113.709C174.249 113.709 173.939 113.795 173.672 113.966C173.405 114.135 173.197 114.357 173.047 114.634C172.901 114.907 172.826 115.208 172.823 115.535V116.55C172.823 116.976 172.901 117.342 173.057 117.647C173.212 117.949 173.43 118.181 173.71 118.343C173.989 118.502 174.317 118.581 174.692 118.581C174.943 118.581 175.17 118.546 175.374 118.476C175.577 118.403 175.753 118.297 175.903 118.157C176.052 118.017 176.165 117.844 176.241 117.637L177.853 117.819C177.751 118.244 177.557 118.616 177.271 118.934C176.988 119.249 176.626 119.493 176.184 119.668C175.742 119.84 175.237 119.926 174.668 119.926ZM179.384 119.783V112.46H181.058V113.68H181.134C181.267 113.258 181.496 112.932 181.82 112.703C182.148 112.471 182.521 112.355 182.941 112.355C183.036 112.355 183.143 112.36 183.26 112.369C183.381 112.376 183.481 112.387 183.561 112.403V113.99C183.487 113.965 183.371 113.943 183.213 113.924C183.057 113.901 182.906 113.89 182.76 113.89C182.445 113.89 182.162 113.958 181.911 114.095C181.663 114.229 181.468 114.415 181.325 114.653C181.182 114.891 181.11 115.166 181.11 115.478V119.783H179.384Z" fill="white"/>
<path d="M51.1586 119.926C50.4276 119.926 49.7999 119.765 49.2754 119.444C48.7542 119.123 48.3521 118.68 48.0693 118.114C47.7896 117.545 47.6497 116.89 47.6497 116.15C47.6497 115.406 47.7928 114.75 48.0788 114.181C48.3649 113.609 48.7685 113.164 49.2897 112.846C49.8142 112.525 50.4339 112.365 51.1491 112.365C51.7434 112.365 52.2694 112.474 52.7271 112.693C53.1879 112.91 53.555 113.216 53.8284 113.614C54.1017 114.008 54.2574 114.469 54.2956 114.996H52.646C52.5793 114.643 52.4204 114.349 52.1693 114.114C51.9214 113.876 51.5892 113.757 51.1729 113.757C50.8201 113.757 50.5102 113.852 50.2432 114.043C49.9763 114.23 49.7681 114.5 49.6187 114.853C49.4725 115.206 49.3994 115.629 49.3994 116.121C49.3994 116.62 49.4725 117.049 49.6187 117.409C49.7649 117.764 49.9699 118.039 50.2337 118.233C50.5007 118.424 50.8137 118.519 51.1729 118.519C51.4272 118.519 51.6544 118.472 51.8546 118.376C52.058 118.278 52.2281 118.136 52.3648 117.952C52.5014 117.768 52.5952 117.544 52.646 117.28H54.2956C54.2543 117.798 54.1017 118.257 53.8379 118.658C53.5741 119.055 53.215 119.366 52.7605 119.592C52.306 119.814 51.772 119.926 51.1586 119.926ZM58.9069 119.926C58.1918 119.926 57.572 119.768 57.0476 119.454C56.5232 119.139 56.1163 118.699 55.8271 118.133C55.5411 117.567 55.3981 116.906 55.3981 116.15C55.3981 115.393 55.5411 114.731 55.8271 114.162C56.1163 113.593 56.5232 113.151 57.0476 112.837C57.572 112.522 58.1918 112.365 58.9069 112.365C59.622 112.365 60.2418 112.522 60.7662 112.837C61.2906 113.151 61.6959 113.593 61.9819 114.162C62.2711 114.731 62.4158 115.393 62.4158 116.15C62.4158 116.906 62.2711 117.567 61.9819 118.133C61.6959 118.699 61.2906 119.139 60.7662 119.454C60.2418 119.768 59.622 119.926 58.9069 119.926ZM58.9164 118.543C59.3042 118.543 59.6284 118.437 59.889 118.224C60.1496 118.008 60.3435 117.718 60.4706 117.356C60.6009 116.994 60.6661 116.59 60.6661 116.145C60.6661 115.697 60.6009 115.292 60.4706 114.929C60.3435 114.564 60.1496 114.273 59.889 114.057C59.6284 113.841 59.3042 113.733 58.9164 113.733C58.5192 113.733 58.1886 113.841 57.9248 114.057C57.6642 114.273 57.4687 114.564 57.3384 114.929C57.2113 115.292 57.1477 115.697 57.1477 116.145C57.1477 116.59 57.2113 116.994 57.3384 117.356C57.4687 117.718 57.6642 118.008 57.9248 118.224C58.1886 118.437 58.5192 118.543 58.9164 118.543ZM65.6064 115.492V119.783H63.8806V112.46H65.5301V113.704H65.6159C65.7844 113.294 66.0529 112.968 66.4216 112.727C66.7935 112.485 67.2527 112.365 67.7994 112.365C68.3048 112.365 68.745 112.473 69.12 112.689C69.4982 112.905 69.7906 113.218 69.9972 113.628C70.207 114.038 70.3103 114.535 70.3071 115.12V119.783H68.5813V115.387C68.5813 114.898 68.4541 114.515 68.1999 114.238C67.9488 113.962 67.6008 113.823 67.1558 113.823C66.8539 113.823 66.5853 113.89 66.3501 114.024C66.1181 114.154 65.9353 114.343 65.8018 114.591C65.6715 114.839 65.6064 115.139 65.6064 115.492ZM77.8492 114.395L76.276 114.567C76.2315 114.408 76.1536 114.259 76.0424 114.119C75.9343 113.979 75.7881 113.866 75.6038 113.78C75.4194 113.695 75.1937 113.652 74.9268 113.652C74.5676 113.652 74.2657 113.73 74.021 113.885C73.7794 114.041 73.6602 114.243 73.6634 114.491C73.6602 114.704 73.7381 114.877 73.897 115.01C74.0591 115.144 74.3261 115.254 74.6979 115.339L75.947 115.606C76.6399 115.756 77.1548 115.993 77.4917 116.317C77.8317 116.641 78.0034 117.065 78.0066 117.59C78.0034 118.051 77.8683 118.457 77.6013 118.81C77.3375 119.16 76.9704 119.433 76.5 119.63C76.0296 119.827 75.4893 119.926 74.8791 119.926C73.9828 119.926 73.2613 119.738 72.7147 119.363C72.168 118.985 71.8422 118.459 71.7373 117.785L73.4203 117.623C73.4965 117.954 73.6586 118.203 73.9065 118.372C74.1544 118.54 74.477 118.624 74.8743 118.624C75.2843 118.624 75.6133 118.54 75.8612 118.372C76.1123 118.203 76.2378 117.995 76.2378 117.747C76.2378 117.537 76.1568 117.364 75.9947 117.227C75.8358 117.091 75.5879 116.986 75.251 116.913L74.0019 116.65C73.2995 116.504 72.7798 116.258 72.4429 115.912C72.106 115.562 71.9392 115.12 71.9423 114.586C71.9392 114.135 72.0615 113.744 72.3094 113.413C72.5605 113.08 72.9085 112.822 73.3535 112.641C73.8017 112.457 74.3181 112.365 74.9029 112.365C75.7611 112.365 76.4365 112.547 76.9291 112.913C77.4249 113.278 77.7316 113.773 77.8492 114.395ZM83.0863 112.46V113.795H78.8766V112.46H83.0863ZM79.9159 110.705H81.6417V117.58C81.6417 117.812 81.6767 117.99 81.7466 118.114C81.8197 118.235 81.9151 118.318 82.0327 118.362C82.1503 118.407 82.2806 118.429 82.4236 118.429C82.5317 118.429 82.6302 118.421 82.7192 118.405C82.8114 118.389 82.8813 118.375 82.929 118.362L83.2198 119.711C83.1276 119.743 82.9957 119.778 82.8241 119.816C82.6556 119.854 82.449 119.876 82.2043 119.883C81.7721 119.896 81.3827 119.83 81.0363 119.687C80.6898 119.541 80.4149 119.316 80.2115 119.01C80.0113 118.705 79.9127 118.324 79.9159 117.866V110.705Z" fill="#7AB3F5"/>
<rect x="177.302" y="59.0923" width="4.02755" height="16.1102" fill="white"/>
<path fill-rule="evenodd" clip-rule="evenodd" d="M162.006 124.359L138.434 116.356L146.436 139.928L146.475 139.89L149.636 127.558L161.968 124.397L162.006 124.359Z" fill="#DCFF77"/>
<path fill-rule="evenodd" clip-rule="evenodd" d="M203.288 74.8799L179.716 66.8774L187.718 90.4493L187.757 90.4109L190.918 78.0797L203.249 74.9181L203.288 74.8799Z" fill="#E334FF"/>
</g>
<rect opacity="0.7" x="11.4375" y="53.1519" width="3.67857" height="77.25" fill="#0E0E0E"/>
<defs>
<linearGradient id="paint0_linear_35_31" x1="107.558" y1="32" x2="107.558" y2="148.172" gradientUnits="userSpaceOnUse">
<stop stop-color="#231A0C" stop-opacity="0"/>
<stop offset="0.296875" stop-color="#231A0C"/>
<stop offset="0.71875" stop-color="#231A0C"/>
<stop offset="1" stop-color="#231A0C" stop-opacity="0"/>
</linearGradient>
</defs>
</svg>
